<svg width="45" height="45" viewBox="0 0 45 45" fill="none" xmlns="http://www.w3.org/2000/svg">
<path d="M37.9122 19.4345C38.1915 19.2233 38.5885 19.426 38.5885 19.7773V43.7703C38.5885 44.1259 38.3025 44.4124 37.9528 44.4124H28.4836C28.1318 44.4124 27.8482 44.1237 27.8482 43.7703V37.8885C27.8482 31.0411 31.0495 24.5942 36.4856 20.5055H36.4876L37.9122 19.4345Z" fill="#80D0D6"/>
<path d="M7.45336 28.1314C14.2288 28.1314 20.6076 31.3664 24.6533 36.8602L24.6556 36.8626L25.7154 38.3023C25.9244 38.5846 25.7241 38.9853 25.3766 38.9854H1.63538C1.28361 38.9853 1.00007 38.6967 1 38.3433V28.7735C1 28.4179 1.2857 28.1315 1.63538 28.1314H7.45336Z" fill="#80D0D6"/>
<path d="M16.4725 1C16.8244 1.00001 17.1078 1.28873 17.1079 1.64213V7.52191C17.1079 14.3693 13.9069 20.8159 8.47083 24.9046L8.46851 24.9069L7.04397 25.9779C6.76463 26.1891 6.36808 25.9867 6.36798 25.6355V1.64213C6.36806 1.28661 6.6537 1.00006 7.00336 1H16.4725Z" fill="#80D0D6"/>
<path d="M43.3208 6.425C43.6726 6.42502 43.9561 6.71371 43.9561 7.06713V16.6369C43.9561 16.9925 43.6705 17.279 43.3208 17.279H37.5008C30.7253 17.279 24.3465 14.044 20.3008 8.5502V8.54784L19.2407 7.10817C19.0317 6.82582 19.2323 6.425 19.5799 6.425H43.3208Z" fill="#80D0D6"/>
</svg>
